#N canvas 299 22 1045 621 10;
#X obj 199 218 t b f;
#X obj 193 247 *;
#X obj 355 218 t b f;
#X obj 348 249 *;
#X obj 193 273 + 16;
#X obj 349 277 + 32;
#X obj 485 215 t b f;
#X obj 483 248 *;
#X obj 656 213 t b f;
#X obj 650 248 *;
#X obj 483 275 + 64;
#X obj 650 275 + 128;
#X obj 193 303 s brightLed1;
#X obj 349 306 s brightLed2;
#X obj 483 302 s brightLed3;
#X obj 650 301 s brightLed4;
#X obj 199 195 r led1val_r;
#X obj 368 126 r led2val_r;
#X obj 488 109 r led3val_r;
#X obj 656 189 r led4val_r;
#X obj 173 173 r led1start;
#X obj 328 173 r led1start;
#X obj 460 168 r led1start;
#X obj 631 166 r led1start;
#X obj 9 10 loadbang;
#X obj 379 40 s led1val_s;
#X obj 457 40 s led2val_s;
#X obj 532 42 s led3val_s;
#X obj 613 42 s led4val_s;
#X obj 202 360 r brightLed1;
#X obj 345 370 r brightLed2;
#X obj 492 375 r brightLed3;
#X obj 659 374 r brightLed4;
#X obj 61 43 cnv 15 160 80 empty empty empty 20 12 0 14 -233017 -66577
0;
#X obj 87 108 hsl 128 15 0 15 0 0 led4val_r led4val_s empty -2 -8 0
10 -258049 -1 -1 0 1;
#X obj 64 107 tgl 15 0 led4start empty empty 17 7 0 10 -259201 -1 -1
1 1;
#X obj 87 86 hsl 128 15 0 15 0 0 led3val_r led3val_s empty -2 -8 0
10 -258113 -1 -1 0 1;
#X obj 64 86 tgl 15 0 led3start empty empty 17 7 0 10 -259393 -1 -1
1 1;
#X obj 87 65 hsl 128 15 0 15 0 0 led2val_r led2val_s empty -2 -8 0
10 -258049 -1 -1 0 1;
#X obj 64 65 tgl 15 0 led2start empty empty 17 7 0 10 -259457 -1 -1
1 1;
#X obj 87 43 hsl 128 15 0 255 0 0 led1val_r ledv1val_s empty -2 -8
0 10 -258177 -1 -1 0 1;
#X obj 63 43 tgl 15 0 led1start empty empty 17 7 0 10 -259521 -1 -1
1 1;
#X msg 9 205 128;
#X msg 26 227 64;
#X msg 43 248 32;
#X obj 9 179 t b b b b;
#X msg 62 272 16;
#X obj 63 303 s led1zero;
#X obj 44 325 s led2zero;
#X obj 27 348 s led3zero;
#X obj 10 372 s led4zero;
#X msg 258 522 devices;
#X msg 198 521 open \$1;
#X floatatom 223 470 5 0 0 0 - - -;
#X msg 315 522 close;
#X obj 197 472 bng 15 250 50 0 empty empty empty 17 7 0 10 -262144
-1 -1;
#X obj 197 496 2;
#X obj 198 558 comport 9600;
#X text 335 561 this baudrate;
#X text -186 178 init: all to lights off;
#X connect 0 0 1 0;
#X connect 0 1 1 1;
#X connect 1 0 4 0;
#X connect 2 0 3 0;
#X connect 2 1 3 1;
#X connect 3 0 5 0;
#X connect 4 0 12 0;
#X connect 4 0 57 0;
#X connect 5 0 13 0;
#X connect 5 0 57 0;
#X connect 6 0 7 0;
#X connect 6 1 7 1;
#X connect 7 0 10 0;
#X connect 8 0 9 0;
#X connect 8 1 9 1;
#X connect 9 0 11 0;
#X connect 10 0 14 0;
#X connect 10 0 57 0;
#X connect 11 0 15 0;
#X connect 11 0 57 0;
#X connect 16 0 0 0;
#X connect 17 0 6 0;
#X connect 19 0 8 0;
#X connect 20 0 1 0;
#X connect 21 0 3 0;
#X connect 22 0 7 0;
#X connect 23 0 9 0;
#X connect 24 0 41 0;
#X connect 24 0 39 0;
#X connect 24 0 37 0;
#X connect 24 0 35 0;
#X connect 24 0 45 0;
#X connect 42 0 50 0;
#X connect 42 0 57 0;
#X connect 43 0 49 0;
#X connect 43 0 57 0;
#X connect 44 0 48 0;
#X connect 44 0 57 0;
#X connect 45 0 42 0;
#X connect 45 1 43 0;
#X connect 45 2 44 0;
#X connect 45 3 46 0;
#X connect 46 0 47 0;
#X connect 46 0 57 0;
#X connect 51 0 57 0;
#X connect 52 0 57 0;
#X connect 53 0 56 1;
#X connect 54 0 57 0;
#X connect 55 0 56 0;
#X connect 56 0 52 0;
#X coords 0 -1 1 1 160 85 2 60 40;
